<?xml version="1.0" standalone="no"?>
<!DOCTYPE svg PUBLIC "-//W3C//DTD SVG 20010904//EN"
 "http://www.w3.org/TR/2001/REC-SVG-20010904/DTD/svg10.dtd">
<svg version="1.0" xmlns="http://www.w3.org/2000/svg"
 width="1809.000000pt" height="1809.000000pt" viewBox="0 0 1809.000000 1809.000000"
 preserveAspectRatio="xMidYMid meet">
<metadata>
Created by potrace 1.11, written by Peter Selinger 2001-2013
</metadata>
<g transform="translate(0.000000,1809.000000) scale(0.100000,-0.100000)"
fill="#000000" stroke="none">
<path d="M0 9045 l0 -9045 9045 0 9045 0 0 9045 0 9045 -9045 0 -9045 0 0
-9045z m14835 695 c696 -1889 698 -1893 810 -2007 51 -51 72 -64 126 -81 35
-11 96 -22 134 -26 161 -15 155 -13 155 -57 l0 -39 -1190 0 -1190 0 0 38 0 39
98 6 c192 12 347 51 386 97 62 74 42 196 -104 629 -61 179 -110 326 -110 328
0 2 -213 3 -472 3 l-473 0 -88 -298 c-96 -325 -122 -446 -114 -534 14 -154
105 -198 460 -224 l87 -6 0 -39 0 -39 -710 0 -710 0 0 39 0 39 88 7 c344 26
414 45 511 143 98 100 167 286 728 1970 l488 1462 278 -2 279 -3 533 -1445z
m-9759 1430 c151 -12 342 -42 446 -71 107 -30 204 -80 304 -157 203 -158 305
-309 365 -538 30 -115 33 -351 6 -485 -87 -433 -327 -666 -772 -750 -96 -18
-169 -22 -560 -29 -247 -5 -507 -9 -577 -9 l-128 -1 0 -552 c0 -304 5 -594 10
-645 17 -160 56 -230 150 -272 50 -22 179 -41 280 -41 36 0 89 -3 118 -6 l52
-7 0 -38 0 -39 -1220 0 -1220 0 0 40 0 40 78 0 c94 0 288 26 345 46 65 23 114
78 138 154 33 106 39 326 38 1550 0 1149 -6 1418 -33 1520 -41 150 -158 210
-411 210 -33 0 -84 3 -112 6 l-53 7 0 38 0 39 1314 0 c799 0 1364 -4 1442 -10z
m3304 -29 l0 -40 -57 -5 c-206 -22 -275 -45 -298 -100 -32 -76 -16 -184 65
-431 122 -373 590 -1639 601 -1627 4 4 117 298 252 654 l246 647 -109 281
c-144 371 -203 478 -284 518 -39 20 -113 37 -253 58 -31 5 -33 8 -33 44 l0 40
1100 0 1100 0 0 -40 0 -40 -50 0 c-55 0 -224 -31 -285 -53 -64 -22 -85 -63
-85 -163 0 -150 41 -280 435 -1369 118 -324 218 -601 222 -613 8 -20 33 39
152 350 175 453 393 1044 454 1229 91 271 101 443 30 521 -47 52 -169 87 -304
88 -31 0 -77 3 -103 6 -46 7 -46 7 -46 45 l0 39 640 0 640 0 0 -39 c0 -44 9
-41 -161 -61 -238 -28 -345 -92 -431 -257 -48 -92 -33 -51 -683 -1783 l-573
-1525 -202 0 -202 0 -452 1282 c-248 706 -454 1283 -457 1283 -3 0 -219 -577
-480 -1282 l-474 -1283 -202 -3 -201 -2 -15 42 c-201 578 -1027 2879 -1086
3026 -162 409 -217 475 -418 501 -177 24 -163 19 -163 55 0 18 3 36 7 39 3 4
492 7 1085 7 l1078 0 0 -39z"/>
<path d="M13254 9393 l-210 -608 425 -3 c233 -1 426 0 429 3 4 4 -411 1174
-427 1203 -4 7 -99 -253 -217 -595z"/>
<path d="M4160 10156 l0 -937 63 5 c34 3 104 8 156 11 114 7 251 30 308 51 55
20 128 99 163 178 86 189 135 567 111 862 -21 264 -82 502 -157 611 -75 108
-178 142 -461 150 l-183 5 0 -936z"/>
</g>
</svg>
