<?xml version="1.0" standalone="no"?>
<!DOCTYPE svg PUBLIC "-//W3C//DTD SVG 20010904//EN"
 "http://www.w3.org/TR/2001/REC-SVG-20010904/DTD/svg10.dtd">
<svg version="1.0" xmlns="http://www.w3.org/2000/svg"
 width="3637.000000pt" height="3637.000000pt" viewBox="0 0 3637.000000 3637.000000"
 preserveAspectRatio="xMidYMid meet">
<metadata>
Created by potrace 1.11, written by Peter Selinger 2001-2013
</metadata>
<g transform="translate(0.000000,3637.000000) scale(0.100000,-0.100000)"
fill="#000000" stroke="none">
<path d="M30 36340 c-20 -20 -20 -33 -20 -18158 0 -17560 1 -18139 18 -18155
17 -16 1293 -17 18159 -17 17561 0 18140 1 18156 18 16 17 17 1293 17 18160
l0 18141 -22 15 c-20 15 -1760 16 -18155 16 -18120 0 -18133 0 -18153 -20z
m27065 -14487 c3 -10 405 -1098 891 -2418 862 -2336 1119 -3015 1211 -3200 93
-184 198 -307 314 -365 89 -45 184 -67 366 -85 234 -22 213 -13 213 -90 l0
-65 -2025 0 -2025 0 0 64 0 64 108 6 c59 4 175 15 259 26 270 36 422 87 470
158 66 99 53 295 -41 603 -19 63 -104 317 -188 564 l-154 450 -801 3 -801 2
-11 -32 c-65 -206 -275 -930 -295 -1018 -54 -242 -56 -422 -6 -520 66 -129
262 -195 653 -220 95 -6 187 -13 205 -16 l32 -5 0 -64 0 -65 -1205 0 -1205 0
0 65 c0 78 -22 70 235 85 358 21 472 42 611 110 103 50 204 143 261 238 45 76
126 259 235 532 38 96 445 1300 904 2674 460 1375 840 2508 845 2518 9 17 36
18 473 18 433 0 464 -1 471 -17z m-15980 -13 c704 -34 1127 -126 1399 -303
298 -195 549 -469 661 -724 99 -227 134 -386 142 -648 8 -270 -21 -479 -102
-740 -188 -606 -672 -952 -1455 -1041 -104 -11 -341 -17 -1024 -24 -488 -5
-897 -12 -908 -16 -20 -6 -20 -14 -15 -957 3 -588 9 -996 16 -1067 26 -268 96
-399 251 -468 99 -45 252 -65 575 -77 88 -4 168 -9 178 -11 14 -4 17 -17 17
-70 l0 -64 -2080 0 -2080 0 0 65 0 65 121 0 c123 0 453 38 561 65 221 55 307
205 328 573 13 211 13 4449 0 4662 -19 329 -84 470 -256 551 -99 47 -259 69
-626 85 l-138 6 0 69 0 69 858 3 c2439 7 3382 6 3577 -3z m5883 -67 l-3 -68
-130 -13 c-294 -29 -420 -70 -465 -152 -23 -41 -25 -55 -25 -170 0 -109 5
-142 34 -255 72 -281 376 -1141 878 -2484 227 -606 238 -632 250 -603 68 166
836 2201 835 2212 -3 43 -360 938 -419 1050 -129 247 -173 293 -325 344 -59
20 -334 66 -394 66 -11 0 -14 17 -14 70 l0 70 1875 0 1876 0 -3 -67 -3 -68
-125 -7 c-74 -3 -176 -17 -249 -33 -218 -46 -271 -70 -309 -134 -24 -41 -27
-57 -30 -161 -9 -277 37 -419 898 -2798 129 -353 237 -639 240 -635 15 16 505
1307 766 2017 278 755 353 1000 373 1216 25 274 -41 400 -245 470 -63 22 -263
46 -476 56 l-128 6 0 69 0 69 1100 0 1100 0 0 -64 c0 -36 -4 -67 -8 -70 -4 -2
-93 -14 -197 -26 -225 -25 -336 -48 -441 -90 -181 -72 -287 -177 -393 -387
-55 -110 -296 -743 -1211 -3183 -494 -1317 -902 -2403 -905 -2413 -7 -16 -30
-17 -348 -15 l-342 3 -702 1990 c-386 1095 -735 2081 -774 2193 -41 116 -75
198 -79 191 -4 -6 -372 -994 -816 -2195 l-809 -2184 -342 0 c-189 0 -343 2
-343 4 0 27 -1773 4970 -1875 5226 -172 435 -260 604 -371 713 -91 90 -170
118 -430 150 l-179 22 -3 68 -3 67 1846 0 1846 0 -3 -67z"/>
<path d="M25313 18798 l-360 -1043 730 -3 c402 -1 732 0 734 2 4 4 -733 2076
-741 2083 -2 2 -165 -466 -363 -1039z"/>
<path d="M9810 20100 l0 -1592 143 6 c339 16 641 55 754 98 197 73 333 321
417 763 48 252 60 404 60 745 0 344 -10 451 -64 720 -66 327 -146 528 -260
654 -66 71 -118 101 -232 131 -177 47 -269 57 -550 62 l-268 5 0 -1592z"/>
</g>
</svg>
